<svg xmlns="http://www.w3.org/2000/svg" xmlns:xlink="http://www.w3.org/1999/xlink" width="2048" zoomAndPan="magnify" viewBox="0 0 1536 1535.999932" height="2048" preserveAspectRatio="xMidYMid meet" version="1.0"><rect x="-153.6" width="1843.2" fill="#ffffff" y="-153.599993" height="1843.199919" fill-opacity="1"/><rect x="-153.6" width="1843.2" fill="#ffffff" y="-153.599993" height="1843.199919" fill-opacity="1"/><rect x="-153.6" width="1843.2" fill="#ffffff" y="-153.599993" height="1843.199919" fill-opacity="1"/><path stroke-linecap="butt" transform="matrix(46.54545, 0, 0, 46.54545, 0.00003385, -0.00002)" fill-opacity="1" fill="#ffffff" fill-rule="nonzero" stroke-linejoin="miter" d="M 1.999977 2.499993 L 9.000023 2.499993 M 11 2.499993 L 12.999978 2.499993 M 15.000039 2.499993 L 15.999986 2.499993 M 18.999994 2.499993 L 23.000032 2.499993 M 23.999979 2.499993 L 31.000025 2.499993 M 1.999977 3.500024 L 3.000007 3.500024 M 7.999992 3.500024 L 9.000023 3.500024 M 11 3.500024 L 12.999978 3.500024 M 15.000039 3.500024 L 17.999963 3.500024 M 20.000024 3.500024 L 20.999971 3.500024 M 22.000002 3.500024 L 23.000032 3.500024 M 23.999979 3.500024 L 25.00001 3.500024 M 29.999995 3.500024 L 31.000025 3.500024 M 1.999977 4.49997 L 3.000007 4.49997 M 4.000038 4.49997 L 6.999962 4.49997 M 7.999992 4.49997 L 9.000023 4.49997 M 9.99997 4.49997 L 12.999978 4.49997 M 14.000008 4.49997 L 15.000039 4.49997 M 15.999986 4.49997 L 17.000016 4.49997 M 20.999971 4.49997 L 23.000032 4.49997 M 23.999979 4.49997 L 25.00001 4.49997 M 26.00004 4.49997 L 28.999964 4.49997 M 29.999995 4.49997 L 31.000025 4.49997 M 1.999977 5.500001 L 3.000007 5.500001 M 4.000038 5.500001 L 6.999962 5.500001 M 7.999992 5.500001 L 9.000023 5.500001 M 9.99997 5.500001 L 12.999978 5.500001 M 15.000039 5.500001 L 20.000024 5.500001 M 20.999971 5.500001 L 22.000002 5.500001 M 23.999979 5.500001 L 25.00001 5.500001 M 26.00004 5.500001 L 28.999964 5.500001 M 29.999995 5.500001 L 31.000025 5.500001 M 1.999977 6.500032 L 3.000007 6.500032 M 4.000038 6.500032 L 6.999962 6.500032 M 7.999992 6.500032 L 9.000023 6.500032 M 9.99997 6.500032 L 11 6.500032 M 17.999963 6.500032 L 23.000032 6.500032 M 23.999979 6.500032 L 25.00001 6.500032 M 26.00004 6.500032 L 28.999964 6.500032 M 29.999995 6.500032 L 31.000025 6.500032 M 1.999977 7.499978 L 3.000007 7.499978 M 7.999992 7.499978 L 9.000023 7.499978 M 9.99997 7.499978 L 11 7.499978 M 12.999978 7.499978 L 14.000008 7.499978 M 15.999986 7.499978 L 17.999963 7.499978 M 18.999994 7.499978 L 20.000024 7.499978 M 23.999979 7.499978 L 25.00001 7.499978 M 29.999995 7.499978 L 31.000025 7.499978 M 1.999977 8.500009 L 9.000023 8.500009 M 9.99997 8.500009 L 11 8.500009 M 12.000031 8.500009 L 12.999978 8.500009 M 14.000008 8.500009 L 15.000039 8.500009 M 15.999986 8.500009 L 17.000016 8.500009 M 17.999963 8.500009 L 18.999994 8.500009 M 20.000024 8.500009 L 20.999971 8.500009 M 22.000002 8.500009 L 23.000032 8.500009 M 23.999979 8.500009 L 31.000025 8.500009 M 9.99997 9.50004 L 11 9.50004 M 20.000024 9.50004 L 22.000002 9.50004 M 1.999977 10.499986 L 3.000007 10.499986 M 4.000038 10.499986 L 9.000023 10.499986 M 11 10.499986 L 12.000031 10.499986 M 14.000008 10.499986 L 17.999963 10.499986 M 18.999994 10.499986 L 20.000024 10.499986 M 20.999971 10.499986 L 22.000002 10.499986 M 23.999979 10.499986 L 28.999964 10.499986 M 1.999977 11.500017 L 4.999985 11.500017 M 6.999962 11.500017 L 7.999992 11.500017 M 9.000023 11.500017 L 9.99997 11.500017 M 12.000031 11.500017 L 14.000008 11.500017 M 15.000039 11.500017 L 15.999986 11.500017 M 17.999963 11.500017 L 18.999994 11.500017 M 20.999971 11.500017 L 26.999987 11.500017 M 29.999995 11.500017 L 31.000025 11.500017 M 4.999985 12.499964 L 6.000015 12.499964 M 7.999992 12.499964 L 9.000023 12.499964 M 9.99997 12.499964 L 11 12.499964 M 12.999978 12.499964 L 17.999963 12.499964 M 18.999994 12.499964 L 20.000024 12.499964 M 25.00001 12.499964 L 26.999987 12.499964 M 1.999977 13.499994 L 6.000015 13.499994 M 9.000023 13.499994 L 9.99997 13.499994 M 11 13.499994 L 12.000031 13.499994 M 12.999978 13.499994 L 15.000039 13.499994 M 15.999986 13.499994 L 17.000016 13.499994 M 17.999963 13.499994 L 18.999994 13.499994 M 20.000024 13.499994 L 22.000002 13.499994 M 25.00001 13.499994 L 26.00004 13.499994 M 26.999987 13.499994 L 28.000018 13.499994 M 28.999964 13.499994 L 29.999995 13.499994 M 3.000007 14.500025 L 4.000038 14.500025 M 7.999992 14.500025 L 9.000023 14.500025 M 9.99997 14.500025 L 17.000016 14.500025 M 18.999994 14.500025 L 20.000024 14.500025 M 23.000032 14.500025 L 23.999979 14.500025 M 26.999987 14.500025 L 28.999964 14.500025 M 1.999977 15.499972 L 3.000007 15.499972 M 4.999985 15.499972 L 6.999962 15.499972 M 9.000023 15.499972 L 9.99997 15.499972 M 11 15.499972 L 14.000008 15.499972 M 15.000039 15.499972 L 15.999986 15.499972 M 18.999994 15.499972 L 26.999987 15.499972 M 29.999995 15.499972 L 31.000025 15.499972 M 3.000007 16.500002 L 4.999985 16.500002 M 6.999962 16.500002 L 9.000023 16.500002 M 12.000031 16.500002 L 15.000039 16.500002 M 17.000016 16.500002 L 18.999994 16.500002 M 20.000024 16.500002 L 20.999971 16.500002 M 22.000002 16.500002 L 23.000032 16.500002 M 23.999979 16.500002 L 25.00001 16.500002 M 26.00004 16.500002 L 28.999964 16.500002 M 1.999977 17.500033 L 3.000007 17.500033 M 6.000015 17.500033 L 7.999992 17.500033 M 9.000023 17.500033 L 11 17.500033 M 12.000031 17.500033 L 15.000039 17.500033 M 15.999986 17.500033 L 18.999994 17.500033 M 23.000032 17.500033 L 26.00004 17.500033 M 28.999964 17.500033 L 29.999995 17.500033 M 1.999977 18.49998 L 3.000007 18.49998 M 6.000015 18.49998 L 9.000023 18.49998 M 11 18.49998 L 12.999978 18.49998 M 14.000008 18.49998 L 17.000016 18.49998 M 18.999994 18.49998 L 20.000024 18.49998 M 26.999987 18.49998 L 28.999964 18.49998 M 1.999977 19.50001 L 3.000007 19.50001 M 6.999962 19.50001 L 7.999992 19.50001 M 9.99997 19.50001 L 11 19.50001 M 15.999986 19.50001 L 17.000016 19.50001 M 17.999963 19.50001 L 26.999987 19.50001 M 28.000018 19.50001 L 28.999964 19.50001 M 29.999995 19.50001 L 31.000025 19.50001 M 1.999977 20.500041 L 3.000007 20.500041 M 4.000038 20.500041 L 4.999985 20.500041 M 6.000015 20.500041 L 9.99997 20.500041 M 11 20.500041 L 12.000031 20.500041 M 12.999978 20.500041 L 14.000008 20.500041 M 15.000039 20.500041 L 15.999986 20.500041 M 17.000016 20.500041 L 18.999994 20.500041 M 25.00001 20.500041 L 26.999987 20.500041 M 28.000018 20.500041 L 28.999964 20.500041 M 1.999977 21.499987 L 3.000007 21.499987 M 4.000038 21.499987 L 7.999992 21.499987 M 9.000023 21.499987 L 9.99997 21.499987 M 15.999986 21.499987 L 17.000016 21.499987 M 17.999963 21.499987 L 18.999994 21.499987 M 20.000024 21.499987 L 20.999971 21.499987 M 22.000002 21.499987 L 25.00001 21.499987 M 28.999964 21.499987 L 29.999995 21.499987 M 1.999977 22.500018 L 3.000007 22.500018 M 4.999985 22.500018 L 12.000031 22.500018 M 14.000008 22.500018 L 15.000039 22.500018 M 18.999994 22.500018 L 20.000024 22.500018 M 20.999971 22.500018 L 26.999987 22.500018 M 28.000018 22.500018 L 31.000025 22.500018 M 9.99997 23.499965 L 11 23.499965 M 12.999978 23.499965 L 14.000008 23.499965 M 15.000039 23.499965 L 15.999986 23.499965 M 17.999963 23.499965 L 20.999971 23.499965 M 22.000002 23.499965 L 23.000032 23.499965 M 26.00004 23.499965 L 31.000025 23.499965 M 1.999977 24.499995 L 9.000023 24.499995 M 12.000031 24.499995 L 14.000008 24.499995 M 15.000039 24.499995 L 18.999994 24.499995 M 20.999971 24.499995 L 23.000032 24.499995 M 23.999979 24.499995 L 25.00001 24.499995 M 26.00004 24.499995 L 28.999964 24.499995 M 1.999977 25.500026 L 3.000007 25.500026 M 7.999992 25.500026 L 9.000023 25.500026 M 9.99997 25.500026 L 12.999978 25.500026 M 15.000039 25.500026 L 15.999986 25.500026 M 20.000024 25.500026 L 23.000032 25.500026 M 26.00004 25.500026 L 26.999987 25.500026 M 1.999977 26.499973 L 3.000007 26.499973 M 4.000038 26.499973 L 6.999962 26.499973 M 7.999992 26.499973 L 9.000023 26.499973 M 9.99997 26.499973 L 11 26.499973 M 12.000031 26.499973 L 14.000008 26.499973 M 15.999986 26.499973 L 17.999963 26.499973 M 18.999994 26.499973 L 20.000024 26.499973 M 22.000002 26.499973 L 26.999987 26.499973 M 28.000018 26.499973 L 31.000025 26.499973 M 1.999977 27.500003 L 3.000007 27.500003 M 4.000038 27.500003 L 6.999962 27.500003 M 7.999992 27.500003 L 9.000023 27.500003 M 9.99997 27.500003 L 15.000039 27.500003 M 17.999963 27.500003 L 18.999994 27.500003 M 20.000024 27.500003 L 20.999971 27.500003 M 22.000002 27.500003 L 23.000032 27.500003 M 26.999987 27.500003 L 31.000025 27.500003 M 1.999977 28.500034 L 3.000007 28.500034 M 4.000038 28.500034 L 6.999962 28.500034 M 7.999992 28.500034 L 9.000023 28.500034 M 9.99997 28.500034 L 11 28.500034 M 15.000039 28.500034 L 15.999986 28.500034 M 17.000016 28.500034 L 17.999963 28.500034 M 23.000032 28.500034 L 29.999995 28.500034 M 1.999977 29.499981 L 3.000007 29.499981 M 7.999992 29.499981 L 9.000023 29.499981 M 12.000031 29.499981 L 14.000008 29.499981 M 15.000039 29.499981 L 17.000016 29.499981 M 17.999963 29.499981 L 18.999994 29.499981 M 22.000002 29.499981 L 23.999979 29.499981 M 26.999987 29.499981 L 28.000018 29.499981 M 28.999964 29.499981 L 29.999995 29.499981 M 1.999977 30.500011 L 9.000023 30.500011 M 9.99997 30.500011 L 11 30.500011 M 12.000031 30.500011 L 14.000008 30.500011 M 18.999994 30.500011 L 22.000002 30.500011 M 25.00001 30.500011 L 26.999987 30.500011 M 28.000018 30.500011 L 28.999964 30.500011 " stroke="#000000" stroke-width="1" stroke-opacity="1" stroke-miterlimit="4"/></svg>